<?xml version="1.0" encoding="UTF-8" standalone="no"?>
<!-- Created with Inkscape (http://www.inkscape.org/) -->

<svg
   version="1.1"
   id="svg9"
   width="880"
   height="880"
   viewBox="0 0 880 880"
   sodipodi:docname="arctic-ice--publicdomainvectors.org.svg"
   inkscape:version="1.2 (dc2aedaf03, 2022-05-15)"
   xmlns:inkscape="http://www.inkscape.org/namespaces/inkscape"
   xmlns:sodipodi="http://sodipodi.sourceforge.net/DTD/sodipodi-0.dtd"
   xmlns="http://www.w3.org/2000/svg"
   xmlns:svg="http://www.w3.org/2000/svg">
  <defs
     id="defs13" />
  <sodipodi:namedview
     id="namedview11"
     pagecolor="#ffffff"
     bordercolor="#000000"
     borderopacity="0.25"
     inkscape:showpageshadow="2"
     inkscape:pageopacity="0.0"
     inkscape:pagecheckerboard="0"
     inkscape:deskcolor="#d1d1d1"
     showgrid="false"
     inkscape:zoom="0.925"
     inkscape:cx="440"
     inkscape:cy="440"
     inkscape:window-width="1920"
     inkscape:window-height="1017"
     inkscape:window-x="-8"
     inkscape:window-y="-8"
     inkscape:window-maximized="1"
     inkscape:current-layer="g17">
    <inkscape:page
       x="0"
       y="0"
       id="page15"
       width="880"
       height="880" />
  </sodipodi:namedview>
  <g
     id="g17"
     inkscape:groupmode="layer"
     inkscape:label="Page 1"
     transform="matrix(1.3333333,0,0,-1.3333333,0,880)">
    <path
       d="M 1.327,0.711 H 659.999 V 660 H 1.327 Z"
       style="fill:#9ec1e3;fill-opacity:1;fill-rule:nonzero;stroke:none"
       id="path19" />
    <g
       id="g21"
       transform="translate(18.7329,353.2964)">
      <path
         d="m 0,0 76.653,44.255 32.809,-18.942 65.57,37.859 54.814,-31.646 100.647,58.108 32.595,-18.818 69.05,39.865 109.772,-63.378 8.49,-96.757 -554.979,7.328 z"
         style="fill:#c3dffa;fill-opacity:1;fill-rule:evenodd;stroke:none"
         id="path23" />
    </g>
    <path
       d="M 1.327,0.711 H 659.999 V 311.172 H 1.327 Z"
       style="fill:#497bad;fill-opacity:1;fill-rule:nonzero;stroke:none"
       id="path25" />
    <g
       id="g27"
       transform="translate(193.2163,413.1641)">
      <path
         d="M 0,0 38.523,-36.747 -33.77,-72.005 Z m -87.8,-64.451 -11.679,-26.558 24.727,25.185 24.496,12.135 6.183,16.484 z m 213.152,47.624 17.403,16.712 -2.749,15.341 14.423,9.158 -4.12,-10.76 11.219,-16.714 -9.614,-46.937 z M 204.11,-29.88 211.438,9.042 252.19,37.433 244.407,-7.9 Z m -355.795,-29.992 48.538,34.343 -3.664,-12.821 9.847,-18.546 -16.029,-28.848 z"
         style="fill:#9ec1e3;fill-opacity:1;fill-rule:evenodd;stroke:none"
         id="path29" />
    </g>
    <g
       id="g31"
       transform="translate(366.6501,374.0913)">
      <path
         d="m 0,0 -54.393,31.405 -17.926,-9.178 -31.8,18.36 -152.349,-87.959 -108.853,63.161 V -62.922 H 293.35 V 46.47 l -106.432,61.446 z"
         style="fill:#ffffff;fill-opacity:1;fill-rule:nonzero;stroke:none"
         id="path33" />
    </g>
    <g
       id="g35"
       transform="translate(503.2701,410.0733)">
      <path
         d="m 0,0 -70.829,-21.063 -72.465,-77.841 h 112.907 l 16.435,49.452 40.237,25.642 21.727,82.422 z m 139.139,-98.904 h 17.591 v 35.807 l -56.972,44.322 z"
         style="fill:#c3dffa;fill-opacity:1;fill-rule:nonzero;stroke:none"
         id="path37" />
    </g>
    <g
       id="g39"
       transform="translate(312.2598,311.1699)">
      <path
         d="M 0,0 -49.455,94.32 -99.368,47.615 -126.383,44.409 -179.501,0 l 1.831,-0.465 z"
         style="fill:#c3dffa;fill-opacity:1;fill-rule:evenodd;stroke:none"
         id="path41" />
    </g>
    <g
       id="g43"
       transform="translate(186.8013,311.1699)">
      <path
         d="M 0,0 27.927,23.349 45.328,26.555 56.776,42.58 54.486,15.105 36.626,-0.232 Z"
         style="fill:#ffffff;fill-opacity:1;fill-rule:evenodd;stroke:none"
         id="path45" />
    </g>
    <g
       id="g47"
       transform="translate(39.3804,310.8379)">
      <path
         d="M 0,0 -37.536,39.231 -38.051,0.332 Z"
         style="fill:#c3dffa;fill-opacity:1;fill-rule:evenodd;stroke:none"
         id="path49" />
    </g>
    <g
       id="g51"
       transform="translate(18.7329,289.0703)">
      <path
         d="m 0,0 76.653,-23.089 32.809,9.883 65.57,-19.752 54.814,16.512 100.647,-30.318 32.595,9.818 69.05,-20.798 109.772,33.065 7.846,46.658 H -4.579 Z"
         style="fill:#578abd;fill-opacity:1;fill-rule:evenodd;stroke:none"
         id="path53" />
    </g>
    <g
       id="g55"
       transform="translate(1.3293,311.049)">
      <path
         d="m 0,0 v -41.064 l 108.853,32.952 152.349,-45.891 31.8,9.58 17.925,-4.789 54.394,16.384 186.918,-56.302 106.431,32.058 V 0 Z"
         style="fill:#5f93c7;fill-opacity:1;fill-rule:nonzero;stroke:none"
         id="path57" />
    </g>
    <g
       id="g59"
       transform="translate(85.5181,201.0273)">
      <path
         d="m 0,0 20.268,30.404 48.645,3.242 21.084,21.082 87.562,-12.162 40.54,-27.567 61.617,-14.594 22.704,-34.051 H -43.783 Z"
         style="fill:#ffffff;fill-opacity:1;fill-rule:evenodd;stroke:none"
         id="path61" />
    </g>
    <g
       id="g63"
       transform="translate(298.1885,167.3809)">
      <path
         d="M 0,0 -35.112,76.213 -70.975,49.91 -73.721,20.146 -89.291,0 Z"
         style="fill:#c3dffa;fill-opacity:1;fill-rule:evenodd;stroke:none"
         id="path65" />
    </g>
    <g
       id="g67"
       transform="translate(105.7856,231.4316)">
      <path
         d="m 0,0 55.032,-17.803 32.971,5.035 33.425,-1.373 -2.746,-29.763 -15.57,-20.147 H -64.05 l 43.782,33.647 z"
         style="fill:#9fc4e6;fill-opacity:1;fill-rule:evenodd;stroke:none"
         id="path69" />
    </g>
    <g
       id="g71"
       transform="translate(85.5181,152.7344)">
      <path
         d="m 0,0 20.268,-13.233 48.645,-1.411 21.084,-9.175 87.562,5.294 40.54,11.996 61.617,6.353 22.704,14.822 H -43.783 Z"
         style="fill:#5f93c7;fill-opacity:1;fill-rule:evenodd;stroke:none"
         id="path73" />
    </g>
    <g
       id="g75"
       transform="translate(1.3293,525.4578)">
      <path
         d="M 0,0 473.617,26.559 0,42.128 Z m 0,-26.557 v -66.854 l 658.67,72.271 v 19.283 z"
         style="fill:#afd0f0;fill-opacity:1;fill-rule:nonzero;stroke:none"
         id="path77" />
    </g>
    <g
       id="g79"
       transform="translate(507.915,179.2845)">
      <path
         d="m 0,0 -21.976,-41.211 -57.697,-23.81 -33.887,-64.11 h 265.645 v 105.832 l -33.946,2.235 -43.957,37.548 z"
         style="fill:#ffffff;fill-opacity:1;fill-rule:nonzero;stroke:none"
         id="path81" />
    </g>
    <g
       id="g83"
       transform="translate(428.2416,114.2631)">
      <path
         d="m 0,0 -33.887,-64.11 h 265.645 v 33.109 L 203.307,2.056 139.201,-8.017 57.697,23.81 Z"
         style="fill:#9fc4e6;fill-opacity:1;fill-rule:nonzero;stroke:none"
         id="path85" />
    </g>
    <g
       id="g87"
       transform="translate(567.4424,106.2461)">
      <path
         d="M 0,0 58.612,51.974 64.106,10.073 0,0 -81.504,31.827 -59.527,73.038 Z"
         style="fill:#c3dffa;fill-opacity:1;fill-rule:evenodd;stroke:none"
         id="path89" />
    </g>
    <g
       id="g91"
       transform="translate(394.3548,50.1534)">
      <path
         d="m 0,0 33.887,-29.734 57.697,-11.042 9.963,-8.666 H 265.645 V 0 Z"
         style="fill:#5f93c7;fill-opacity:1;fill-rule:nonzero;stroke:none"
         id="path93" />
    </g>
    <g
       id="g95"
       transform="translate(208.9004,102.126)">
      <path
         d="M 0,0 65.94,-2.519 131.877,-5.035 65.94,-7.554 0,-10.073 l -65.94,2.519 -65.935,2.519 65.935,2.516 z"
         style="fill:#5f93c7;fill-opacity:1;fill-rule:evenodd;stroke:none"
         id="path97" />
    </g>
    <g
       id="g99"
       transform="translate(472.4248,215.2295)">
      <path
         d="M 0,0 45.677,-1.744 91.351,-3.489 45.677,-5.233 0,-6.977 l -45.675,1.744 -45.677,1.744 45.677,1.745 z"
         style="fill:#5f93c7;fill-opacity:1;fill-rule:evenodd;stroke:none"
         id="path101" />
    </g>
    <g
       id="g103"
       transform="translate(562.6338,245.4502)">
      <path
         d="M 0,0 45.675,-1.743 91.352,-3.487 45.675,-5.233 0,-6.977 l -45.677,1.744 -45.676,1.746 45.676,1.744 z"
         style="fill:#78a7d6;fill-opacity:1;fill-rule:evenodd;stroke:none"
         id="path105" />
    </g>
    <g
       id="g107"
       transform="translate(330.9395,284.0732)">
      <path
         d="M 0,0 45.677,-1.744 91.352,-3.49 45.677,-5.233 0,-6.977 l -45.677,1.744 -45.677,1.743 45.677,1.746 z"
         style="fill:#78a7d6;fill-opacity:1;fill-rule:evenodd;stroke:none"
         id="path109" />
    </g>
    <g
       id="g111"
       transform="translate(91.4819,273.207)">
      <path
         d="M 0,0 32.757,-1.251 65.511,-2.503 32.757,-3.754 0,-5.004 l -32.755,1.25 -32.757,1.251 32.757,1.252 z"
         style="fill:#78a7d6;fill-opacity:1;fill-rule:evenodd;stroke:none"
         id="path113" />
    </g>
    <g
       id="g115"
       transform="translate(162.9639,298.2656)">
      <path
         d="M 0,0 25.715,-0.981 51.434,-1.964 25.715,-2.946 0,-3.929 l -25.721,0.983 -25.716,0.982 25.716,0.983 z"
         style="fill:#78a7d6;fill-opacity:1;fill-rule:evenodd;stroke:none"
         id="path117" />
    </g>
    <g
       id="g119"
       transform="translate(522.8271,290.3184)">
      <path
         d="M 0,0 25.718,-0.982 51.437,-1.965 25.718,-2.947 0,-3.931 l -25.716,0.984 -25.718,0.982 25.718,0.983 z"
         style="fill:#78a7d6;fill-opacity:1;fill-rule:evenodd;stroke:none"
         id="path121" />
    </g>
  </g>
</svg>
